<svg width="53" height="53" viewBox="0 0 53 53" fill="none" xmlns="http://www.w3.org/2000/svg">
<path d="M44.1667 8.83398H8.83333C7.6137 8.83398 6.625 9.82269 6.625 11.0423V41.959C6.625 43.1786 7.61371 44.1673 8.83333 44.1673H44.1667C45.3863 44.1673 46.375 43.1786 46.375 41.959V11.0423C46.375 9.82269 45.3863 8.83398 44.1667 8.83398Z" stroke="#124151" stroke-opacity="0.3" stroke-width="2" stroke-linecap="round" stroke-linejoin="round"/>
<path d="M6.625 37.5425L18.1746 24.068C19.064 23.0304 20.6728 23.0416 21.5477 24.0915L29.3686 33.4765C30.1999 34.4741 31.7084 34.5425 32.6266 33.6243L35.797 30.4538C36.7277 29.5231 38.2608 29.608 39.083 30.6358L46.375 39.7509" stroke="#124151" stroke-opacity="0.3" stroke-width="2" stroke-linecap="round" stroke-linejoin="round"/>
<path d="M30.9165 19.8758C30.9165 18.6562 31.9052 17.6675 33.1248 17.6675C34.3445 17.6675 35.3332 18.6562 35.3332 19.8758C35.3332 21.0954 34.3445 22.0841 33.1248 22.0841C31.9052 22.0841 30.9165 21.0954 30.9165 19.8758Z" stroke="#124151" stroke-opacity="0.3" stroke-width="2" stroke-linecap="round" stroke-linejoin="round"/>
</svg>
