<svg width="24" height="25" viewBox="0 0 24 25" fill="none" xmlns="http://www.w3.org/2000/svg">
<path d="M12.2902 21.3968L12.6452 22.3317L12.6452 22.3317L12.2902 21.3968ZM11.7098 21.3968L11.3548 22.3317L11.3548 22.3317L11.7098 21.3968ZM5 4.5H19V2.5H5V4.5ZM19 4.5V10.6649H21V4.5H19ZM5 10.6649V4.5H3V10.6649H5ZM19 10.6649C19 17.3586 13.3228 19.935 11.9351 20.462L12.6452 22.3317C14.1289 21.7682 21 18.7341 21 10.6649H19ZM3 10.6649C3 18.7341 9.87108 21.7682 11.3548 22.3317L12.0649 20.462C10.6772 19.935 5 17.3586 5 10.6649H3ZM11.9351 20.462C11.95 20.4564 11.9725 20.451 12 20.451C12.0275 20.451 12.05 20.4564 12.0649 20.462L11.3548 22.3317C11.7737 22.4908 12.2263 22.4908 12.6452 22.3317L11.9351 20.462ZM19 4.5V4.5H21C21 3.39543 20.1046 2.5 19 2.5V4.5ZM5 2.5C3.89543 2.5 3 3.39543 3 4.5H5V4.5V2.5Z" fill="#606369"/>
<path d="M15.7071 10.2071C16.0976 9.81658 16.0976 9.18342 15.7071 8.79289C15.3166 8.40237 14.6834 8.40237 14.2929 8.79289L15.7071 10.2071ZM11 13.5L10.2929 14.2071C10.6834 14.5976 11.3166 14.5976 11.7071 14.2071L11 13.5ZM9.70711 10.7929C9.31658 10.4024 8.68342 10.4024 8.29289 10.7929C7.90237 11.1834 7.90237 11.8166 8.29289 12.2071L9.70711 10.7929ZM14.2929 8.79289L10.2929 12.7929L11.7071 14.2071L15.7071 10.2071L14.2929 8.79289ZM11.7071 12.7929L9.70711 10.7929L8.29289 12.2071L10.2929 14.2071L11.7071 12.7929Z" fill="#606369"/>
</svg>
