<svg width="24" height="25" viewBox="0 0 24 25" fill="none" xmlns="http://www.w3.org/2000/svg">
<path d="M17 21.5C18.1046 21.5 19 20.6046 19 19.5C19 18.3954 18.1046 17.5 17 17.5C15.8954 17.5 15 18.3954 15 19.5C15 20.6046 15.8954 21.5 17 21.5Z" stroke="#606369" stroke-width="2" stroke-linecap="round" stroke-linejoin="round"/>
<path d="M8 21.5C9.10457 21.5 10 20.6046 10 19.5C10 18.3954 9.10457 17.5 8 17.5C6.89543 17.5 6 18.3954 6 19.5C6 20.6046 6.89543 21.5 8 21.5Z" stroke="#606369" stroke-width="2" stroke-linecap="round" stroke-linejoin="round"/>
<path d="M3 3.5H4.19158C4.66312 3.5 5.07059 3.8294 5.16939 4.29047L7.83061 16.7095C7.92941 17.1706 8.33688 17.5 8.80842 17.5H17" stroke="#606369" stroke-width="2" stroke-linecap="round" stroke-linejoin="round"/>
<path d="M6 6.5H19.6708C20.3362 6.5 20.816 7.13779 20.6316 7.77716L18.9008 13.7772C18.7773 14.2052 18.3855 14.5 17.94 14.5H7.73077" stroke="#606369" stroke-width="2" stroke-linecap="round" stroke-linejoin="round"/>
</svg>
