<svg width="53" height="53" viewBox="0 0 53 53" fill="none" xmlns="http://www.w3.org/2000/svg">
<path d="M19.8752 28.7088C22.3144 28.7088 24.2918 26.7314 24.2918 24.2922C24.2918 21.8529 22.3144 19.8755 19.8752 19.8755C17.4359 19.8755 15.4585 21.8529 15.4585 24.2922C15.4585 26.7314 17.4359 28.7088 19.8752 28.7088Z" stroke="#124151" stroke-opacity="0.3" stroke-width="2" stroke-linecap="round" stroke-linejoin="round"/>
<path d="M44.1667 13.2505H8.83333C7.6137 13.2505 6.625 14.2392 6.625 15.4588V37.5422C6.625 38.7618 7.61371 39.7505 8.83333 39.7505H44.1667C45.3863 39.7505 46.375 38.7618 46.375 37.5422V15.4588C46.375 14.2392 45.3863 13.2505 44.1667 13.2505Z" stroke="#124151" stroke-opacity="0.3" stroke-width="2" stroke-linecap="round" stroke-linejoin="round"/>
<path d="M13.25 39.7504C13.25 37.3111 16.2161 35.3337 19.875 35.3337C23.5339 35.3337 26.5 37.3111 26.5 39.7504" stroke="#124151" stroke-opacity="0.3" stroke-width="2" stroke-linecap="round" stroke-linejoin="round"/>
<path d="M39.7498 30.9172L30.9165 30.9172" stroke="#124151" stroke-opacity="0.3" stroke-width="2" stroke-linecap="round" stroke-linejoin="round"/>
<path d="M39.75 24.2922L33.125 24.2922" stroke="#124151" stroke-opacity="0.3" stroke-width="2" stroke-linecap="round" stroke-linejoin="round"/>
</svg>
